<?xml version="1.0" encoding="UTF-8" standalone="no"?>
<svg width="110px" height="19px" viewBox="0 0 110 19" version="1.1" xmlns="http://www.w3.org/2000/svg" xmlns:xlink="http://www.w3.org/1999/xlink">
    <!-- Generator: Sketch 3.8.2 (29753) - http://www.bohemiancoding.com/sketch -->
    <title>FutuHours</title>
    <desc>Created with Sketch.</desc>
    <defs></defs>
    <g id="Page-1" stroke="none" stroke-width="1" fill="none" fill-rule="evenodd">
        <g id="Futuhours-Desktop" transform="translate(-183.000000, -25.000000)" fill="#FFFFFF">
            <g id="Group" transform="translate(183.000000, 25.000000)">
                <path d="M0.96,18 L4.296,18 L4.296,10.8 L10.872,10.8 L10.872,7.608 L4.296,7.608 L4.296,3.672 L10.872,3.672 L10.872,0.48 L0.96,0.48 L0.96,18 Z M17.2529782,18.24 C18.6209782,18.24 19.7729782,17.64 20.5649782,16.68 L20.5649782,18 L23.8289782,18 L23.8289782,6 L20.5409782,6 L20.5409782,12.552 C20.5409782,14.568 19.5089782,15.432 18.2609782,15.432 C16.7969782,15.432 16.0529782,14.496 16.0529782,12.888 L16.0529782,6 L12.7169782,6 L12.7169782,13.32 C12.7169782,16.416 14.4209782,18.24 17.2529782,18.24 L17.2529782,18.24 Z M25.5539563,8.952 L27.5939563,8.952 L27.5939563,12.792 C27.5939563,16.704 28.8419563,18 32.6579563,18 L33.1379563,18 L33.1379563,14.928 C31.1219563,14.928 30.8819563,14.64 30.8819563,12.768 L30.8819563,8.952 L33.1379563,8.952 L33.1379563,6 L30.8819563,6 L30.8819563,1.392 L27.5939563,3.192 L27.5939563,6 L25.5539563,6 L25.5539563,8.952 Z M39.5189345,18.24 C40.8869345,18.24 42.0389345,17.64 42.8309345,16.68 L42.8309345,18 L46.0949345,18 L46.0949345,6 L42.8069345,6 L42.8069345,12.552 C42.8069345,14.568 41.7749345,15.432 40.5269345,15.432 C39.0629345,15.432 38.3189345,14.496 38.3189345,12.888 L38.3189345,6 L34.9829345,6 L34.9829345,13.32 C34.9829345,16.416 36.6869345,18.24 39.5189345,18.24 L39.5189345,18.24 Z M58.1159126,18 L61.4519126,18 L61.4519126,0.48 L58.1159126,0.48 L58.1159126,7.632 L51.5159126,7.632 L51.5159126,0.48 L48.1799126,0.48 L48.1799126,18 L51.5159126,18 L51.5159126,10.824 L58.1159126,10.824 L58.1159126,18 Z M69.3928908,18.24 C72.8488908,18.24 75.6088908,15.456 75.6088908,12 C75.6088908,8.544 72.8488908,5.76 69.3928908,5.76 C65.9368908,5.76 63.1768908,8.544 63.1768908,12 C63.1768908,15.456 65.9368908,18.24 69.3928908,18.24 L69.3928908,18.24 Z M69.3928908,15.12 C67.6888908,15.12 66.3928908,13.704 66.3928908,12 C66.3928908,10.296 67.6888908,8.88 69.3928908,8.88 C71.0728908,8.88 72.4168908,10.296 72.4168908,12 C72.4168908,13.704 71.0728908,15.12 69.3928908,15.12 L69.3928908,15.12 Z M81.7498689,18.24 C83.1178689,18.24 84.2698689,17.64 85.0618689,16.68 L85.0618689,18 L88.3258689,18 L88.3258689,6 L85.0378689,6 L85.0378689,12.552 C85.0378689,14.568 84.0058689,15.432 82.7578689,15.432 C81.2938689,15.432 80.5498689,14.496 80.5498689,12.888 L80.5498689,6 L77.2138689,6 L77.2138689,13.32 C77.2138689,16.416 78.9178689,18.24 81.7498689,18.24 L81.7498689,18.24 Z M90.4108471,18 L93.6988471,18 L93.6988471,12.336 C93.6988471,10.104 94.4668471,9.192 96.2188471,9.192 L98.3068471,9.192 L98.3068471,6 L96.9868471,6 C95.3548471,6 94.2748471,6.72 93.6748471,7.968 L93.6748471,6 L90.4108471,6 L90.4108471,18 Z M104.759825,18.24 C108.215825,18.288 109.847825,15.984 109.847825,14.232 C109.847825,11.64 107.519825,10.92 105.503825,10.512 C103.703825,10.152 103.007825,9.96 103.007825,9.432 C103.007825,8.904 103.487825,8.448 104.567825,8.448 C105.647825,8.448 106.463825,8.976 106.775825,9.768 L109.679825,8.544 C108.815825,6.864 107.279825,5.76 104.591825,5.76 C101.615825,5.712 99.6718252,7.512 99.6718252,9.528 C99.6718252,12.096 101.831825,12.84 103.991825,13.224 C105.383825,13.488 106.559825,13.68 106.559825,14.328 C106.559825,14.904 105.983825,15.408 104.903825,15.408 C103.727825,15.408 102.815825,14.88 102.383825,13.776 L99.2398252,15 C100.103825,17.112 101.855825,18.24 104.759825,18.24 L104.759825,18.24 Z" id="FutuHours"></path>
            </g>
        </g>
    </g>
</svg>